<svg viewBox="0 0 30 30" fill="none" xmlns="http://www.w3.org/2000/svg">
    <g clip-path="url(#clip0_453_2046)">
        <path fill-rule="evenodd" clip-rule="evenodd"
            d="M20.8374 16.4126C22.5499 17.5751 23.7499 19.1501 23.7499 21.2501V25.0001H28.7499V21.2501C28.7499 18.5251 24.2874 16.9126 20.8374 16.4126Z"
            fill="currentColor" />
        <path
            d="M11.25 15C14.0114 15 16.25 12.7614 16.25 10C16.25 7.23858 14.0114 5 11.25 5C8.48858 5 6.25 7.23858 6.25 10C6.25 12.7614 8.48858 15 11.25 15Z"
            fill="currentColor" />
        <path fill-rule="evenodd" clip-rule="evenodd"
            d="M18.7499 15C21.5124 15 23.7499 12.7625 23.7499 10C23.7499 7.2375 21.5124 5 18.7499 5C18.1624 5 17.6124 5.125 17.0874 5.3C18.1249 6.5875 18.7499 8.225 18.7499 10C18.7499 11.775 18.1249 13.4125 17.0874 14.7C17.6124 14.875 18.1624 15 18.7499 15Z"
            fill="currentColor" />
        <path fill-rule="evenodd" clip-rule="evenodd"
            d="M11.25 16.25C7.9125 16.25 1.25 17.925 1.25 21.25V25H21.25V21.25C21.25 17.925 14.5875 16.25 11.25 16.25Z"
            fill="currentColor" />
    </g>
    <defs>
        <clipPath id="clip0_453_2046">
            <rect width="30" height="30" fill="currentColor" />
        </clipPath>
    </defs>
</svg>