<svg viewBox="0 0 25 25" fill="none" xmlns="http://www.w3.org/2000/svg">
<g clip-path="url(#clip0_622_2259)">
<path d="M15.75 12.5C17.96 12.5 19.75 10.71 19.75 8.5C19.75 6.29 17.96 4.5 15.75 4.5C13.54 4.5 11.75 6.29 11.75 8.5C11.75 10.71 13.54 12.5 15.75 12.5ZM6.75 10.5V7.5H4.75V10.5H1.75V12.5H4.75V15.5H6.75V12.5H9.75V10.5H6.75ZM15.75 14.5C13.08 14.5 7.75 15.84 7.75 18.5V20.5H23.75V18.5C23.75 15.84 18.42 14.5 15.75 14.5Z" fill="currentColor"/>
</g>
<defs>
<clipPath id="clip0_622_2259">
<rect width="24" height="24" fill="white" transform="translate(0.75 0.5)"/>
</clipPath>
</defs>
</svg>
