<svg viewBox="0 0 25 25" fill="none" xmlns="http://www.w3.org/2000/svg">
<path d="M16.1401 10.402C19.0828 10.402 21.4369 12.8775 21.4369 15.9719C21.4369 17.0611 21.1426 18.0884 20.6247 18.9425L24.25 22.7795L22.6139 24.5L18.9415 20.7001C18.1294 21.2323 17.1642 21.5418 16.1401 21.5418C13.1975 21.5418 10.8434 19.0663 10.8434 15.9719C10.8434 12.8775 13.1975 10.402 16.1401 10.402ZM16.1401 12.8775C15.3597 12.8775 14.6112 13.2035 14.0594 13.7838C13.5075 14.3641 13.1975 15.1512 13.1975 15.9719C13.1975 16.7926 13.5075 17.5796 14.0594 18.16C14.6112 18.7403 15.3597 19.0663 16.1401 19.0663C16.9206 19.0663 17.669 18.7403 18.2209 18.16C18.7727 17.5796 19.0828 16.7926 19.0828 15.9719C19.0828 15.1512 18.7727 14.3641 18.2209 13.7838C17.669 13.2035 16.9206 12.8775 16.1401 12.8775ZM9.66638 0.5C10.9151 0.5 12.1126 1.02162 12.9956 1.95012C13.8785 2.87861 14.3746 4.13792 14.3746 5.45101C14.3746 6.57736 14.0097 7.61707 13.4094 8.45874C12.3971 8.85482 11.4908 9.48608 10.7375 10.2782L9.66638 10.402C8.41769 10.402 7.22014 9.88039 6.33719 8.9519C5.45423 8.0234 4.95819 6.76409 4.95819 5.45101C4.95819 4.13792 5.45423 2.87861 6.33719 1.95012C7.22014 1.02162 8.41769 0.5 9.66638 0.5ZM0.25 20.304V17.8285C0.25 15.2045 4.14603 13.0508 9.07786 12.8775C8.7012 13.843 8.48933 14.8827 8.48933 15.9719C8.48933 17.5686 8.93661 19.0663 9.66638 20.304H0.25Z" fill="currentColor"/>
</svg>
