<svg  viewBox="0 0 60 54" fill="none" xmlns="http://www.w3.org/2000/svg">
<path d="M54.2163 0.704487C53.3735 0.741149 52.6 0.983554 51.9206 1.25136C51.2929 1.49858 49.0387 2.44602 45.4492 3.95156C41.8598 5.45709 37.1035 7.45324 32.0337 9.58551C21.8941 13.85 10.4999 18.6471 4.66146 21.1041C4.46096 21.1876 3.64671 21.4369 2.7474 22.1238C1.846 22.8122 0.844727 24.3064 0.844727 25.9405C0.844727 27.2587 1.50277 28.6012 2.29736 29.3698C3.09196 30.1385 3.89726 30.4979 4.57031 30.7655V30.7598C6.84539 31.6662 13.6395 34.3849 15.2572 35.0323C15.831 36.7517 18.2942 44.1129 18.8802 45.9641H18.8745C19.2887 47.2743 19.6924 48.1281 20.2531 48.8409C20.5334 49.1972 20.868 49.5202 21.2785 49.7751C21.436 49.8729 21.6103 49.9488 21.7855 50.0201C21.8099 50.0304 21.835 50.033 21.8595 50.0429L21.7912 50.0258C21.842 50.0462 21.8875 50.0763 21.9393 50.0941C22.0236 50.1232 22.0821 50.1222 22.1956 50.1454C22.5952 50.2683 22.9941 50.3505 23.3634 50.3505C24.949 50.3505 25.9212 49.4903 25.9212 49.4903L25.9839 49.4447L32.8312 43.6513L41.2166 51.41C41.3698 51.6263 42.5697 53.2501 45.3467 53.2501C47.0037 53.2501 48.3138 52.4299 49.152 51.5696C49.9902 50.7092 50.5123 49.829 50.7471 48.6358L50.7528 48.6301C50.94 47.6671 58.9673 7.35813 58.9673 7.35813L58.9502 7.42649C59.2 6.31132 59.2738 5.23287 58.9787 4.13385C58.6835 3.03483 57.887 1.9623 56.9279 1.39947C55.9688 0.836648 55.0591 0.667823 54.2163 0.704487ZM53.0656 7.09039C52.7484 8.68298 45.5575 44.8089 45.1131 47.0749L33.0021 35.8697L24.8161 42.7911L27.0833 33.9271C27.0833 33.9271 42.7241 18.0951 43.6662 17.1734C44.4245 16.4355 44.5833 16.1768 44.5833 15.9201C44.5833 15.5789 44.4077 15.3334 44.0023 15.3334C43.6377 15.3334 43.1425 15.6828 42.88 15.8461C39.5444 17.9257 25.3371 26.0221 18.3504 29.9965C17.93 29.8279 11.6174 27.2931 8.21615 25.9348C14.2661 23.3886 24.6367 19.0253 34.2953 14.9631C39.3642 12.8312 44.1191 10.8333 47.7051 9.32916C50.7321 8.05951 52.3112 7.40211 53.0656 7.09039ZM45.0277 47.4908H45.0334L45.0277 47.5079C45.0314 47.489 45.0249 47.5055 45.0277 47.4908Z" fill="currentColor"/>
</svg>
