<svg viewBox="0 0 54 54" fill="none" xmlns="http://www.w3.org/2000/svg">
<path d="M9.5 0.75C4.70217 0.75 0.75 4.70217 0.75 9.5V44.5C0.75 49.2978 4.70217 53.25 9.5 53.25H44.5C49.2978 53.25 53.25 49.2978 53.25 44.5V9.5C53.25 4.70217 49.2978 0.75 44.5 0.75H9.5ZM27 12.4167H32.8333C32.8333 15.3479 37.1238 18.25 38.6667 18.25V24.0833C36.9021 24.0833 34.7817 23.308 32.8333 21.9984V32.8333C32.8333 37.6575 28.9075 41.5833 24.0833 41.5833C19.2592 41.5833 15.3333 37.6575 15.3333 32.8333C15.3333 28.0092 19.2592 24.0833 24.0833 24.0833V29.9167C22.4733 29.9167 21.1667 31.2263 21.1667 32.8333C21.1667 34.4404 22.4733 35.75 24.0833 35.75C25.6933 35.75 27 34.4404 27 32.8333V12.4167Z" fill="currentColor"/>
</svg>
