<svg viewBox="0 0 54 54" fill="none" xmlns="http://www.w3.org/2000/svg">
<path d="M21.3213 15.2983L37.745 38.7017H33.3787L16.9842 15.2983H21.3213ZM53.25 9.5V44.5C53.25 49.3329 49.3329 53.25 44.5 53.25H9.5C4.66708 53.25 0.75 49.3329 0.75 44.5V9.5C0.75 4.66708 4.66708 0.75 9.5 0.75H44.5C49.3329 0.75 53.25 4.66708 53.25 9.5ZM43.1525 41.5833L30.9433 24.1125L40.9242 12.4167H37.1004L29.2138 21.6333L22.7767 12.4167H11.5475L23.0421 28.8463L12.1425 41.5833H16.0304L24.7833 31.3283L31.9525 41.5833H43.1525Z" fill="currentColor"/>
</svg>
