<svg viewBox="0 0 70 70" fill="none" xmlns="http://www.w3.org/2000/svg">
<path fill-rule="evenodd" clip-rule="evenodd" d="M59.8015 10.172C56.5656 6.93463 52.7214 4.36923 48.4901 2.62352C44.2589 0.877801 39.7241 -0.01376 35.1468 0.00016053C15.9375 0.00016053 0.299999 15.5595 0.292187 34.6876C0.283689 40.7784 1.88921 46.7627 4.94531 52.0313L0 70L18.4765 65.1766C23.5909 67.9473 29.3161 69.3973 35.1328 69.3953H35.1468C54.3546 69.3953 69.9905 53.8344 69.9999 34.7079C70.0115 30.1463 69.1159 25.6279 67.365 21.4156C65.6142 17.2034 63.0431 13.3814 59.8015 10.172ZM35.1468 63.5406H35.1343C29.949 63.5422 24.8579 62.1545 20.3906 59.5219L19.3328 58.8969L8.36874 61.7594L11.2953 51.1204L10.6062 50.0266C7.70684 45.4363 6.17069 40.1169 6.17655 34.6876C6.17655 18.7923 19.1781 5.85952 35.1578 5.85952C42.8234 5.84583 50.1805 8.87754 55.611 14.2878C61.0415 19.6981 64.1006 27.0439 64.1155 34.7095C64.1093 50.6063 51.114 63.5406 35.1468 63.5406ZM51.0359 41.9485C50.1656 41.5141 45.8796 39.4173 45.0859 39.1282C44.2921 38.8391 43.7062 38.6938 43.1265 39.5626C42.5468 40.4313 40.8765 42.3751 40.3687 42.961C39.8609 43.5469 39.3531 43.611 38.4828 43.1766C37.6124 42.7422 34.8046 41.8282 31.4781 38.8751C28.889 36.5766 27.1421 33.7391 26.6343 32.872C26.1265 32.0048 26.5796 31.5345 27.0156 31.1032C27.4078 30.7142 27.8859 30.0907 28.3218 29.5845C28.7578 29.0782 28.9031 28.7157 29.1921 28.1376C29.4812 27.5595 29.3375 27.0532 29.1203 26.6204C28.9031 26.1876 27.1609 21.9204 26.4359 20.1845C25.7281 18.4939 25.0109 18.7236 24.4765 18.697C23.9687 18.672 23.3828 18.6657 22.8062 18.6657C22.3655 18.6772 21.9318 18.7794 21.5323 18.966C21.1328 19.1526 20.7761 19.4195 20.4843 19.7501C19.6859 20.6189 17.4359 22.7189 17.4359 26.9813C17.4359 31.2438 20.5609 35.3688 20.9922 35.947C21.4234 36.5251 27.1328 45.2797 35.8687 49.0344C37.4909 49.7291 39.1483 50.3383 40.8343 50.8594C42.9202 51.5188 44.8187 51.4266 46.3187 51.2032C47.9921 50.9547 51.4749 49.1063 52.1984 47.0813C52.9218 45.0563 52.9234 43.3219 52.7062 42.961C52.489 42.6001 51.9077 42.3813 51.0359 41.9485Z" fill="currentColor"/>
</svg>
